<svg width="63" height="63" viewBox="0 0 63 63" fill="none" xmlns="http://www.w3.org/2000/svg">
<path d="M31.5 0C14.1285 0 0 14.1285 0 31.5C0 48.8715 14.1285 63 31.5 63C48.8715 63 63 48.8715 63 31.5C63 14.1285 48.8715 0 31.5 0ZM43.5401 27.5625L30.759 40.3436C30.0976 40.9958 29.2301 41.3588 28.3011 41.3588C27.3721 41.3588 26.5047 40.9958 25.8524 40.3436L19.4571 33.9483C18.1035 32.6009 18.1035 30.3953 19.4571 29.0417C20.1092 28.3896 20.9767 28.0328 21.9057 28.0328C22.8347 28.0328 23.7084 28.3866 24.3636 29.0417L28.3011 32.9885L38.6339 22.6557C39.9874 21.3021 42.193 21.3021 43.5404 22.6464C44.894 24 44.894 26.2055 43.5404 27.5591L43.5401 27.5625Z" fill="#0080DC"/>
</svg>
